<?xml version="1.0" encoding="UTF-8"?>
<svg width="300" height="360" viewBox="0 0 300 360" fill="none" xmlns="http://www.w3.org/2000/svg">
  <defs>
    <filter id="softShadow" x="-50%" y="-50%" width="200%" height="200%">
      <feDropShadow dx="0" dy="10" stdDeviation="12" flood-color="#000" flood-opacity="0.25"/>
    </filter>
    <linearGradient id="cardGrad" x1="0" y1="0" x2="0" y2="1">
      <stop offset="0%" stop-color="#FFFFFF"/>
      <stop offset="100%" stop-color="#F9FAFB"/>
    </linearGradient>
    <radialGradient id="bg" cx="38%" cy="18%" r="70%">
      <stop offset="0%" stop-color="#F6F3EE" stop-opacity="0.9"/>
      <stop offset="100%" stop-color="#FFFFFF" stop-opacity="0"/>
    </radialGradient>
  </defs>
  <rect x="0" y="0" width="300" height="360" fill="url(#bg)"/>
  <g transform="translate(45,18) rotate(8 105 120)" filter="url(#softShadow)">
    <rect x="0" y="0" width="210" height="240" rx="16" fill="url(#cardGrad)" stroke="#ECECEC"/>
    <g transform="translate(24,22)" fill="#111827">
      <rect x="0" y="0" width="56" height="56" rx="8" fill="#111827"/>
      <rect x="8" y="8" width="40" height="40" rx="4" fill="#FFFFFF"/>
      <rect x="16" y="16" width="24" height="24" rx="3" fill="#111827"/>
      <rect x="106" y="0" width="56" height="56" rx="8" fill="#111827"/>
      <rect x="114" y="8" width="40" height="40" rx="4" fill="#FFFFFF"/>
      <rect x="122" y="16" width="24" height="24" rx="3" fill="#111827"/>
      <rect x="0" y="92" width="56" height="56" rx="8" fill="#111827"/>
      <rect x="8" y="100" width="40" height="40" rx="4" fill="#FFFFFF"/>
      <rect x="16" y="108" width="24" height="24" rx="3" fill="#111827"/>
      <rect x="84" y="24" width="16" height="16" rx="4"/>
      <rect x="84" y="52" width="16" height="16" rx="4"/>
      <rect x="84" y="92" width="16" height="16" rx="4"/>
      <rect x="112" y="92" width="16" height="16" rx="4"/>
      <rect x="140" y="92" width="16" height="16" rx="4"/>
      <rect x="140" y="120" width="16" height="16" rx="4"/>
      <rect x="112" y="120" width="16" height="16" rx="4"/>
      <rect x="84" y="120" width="16" height="16" rx="4"/>
    </g>
    <text x="105" y="210" text-anchor="middle" font-family="Inter, system-ui, -apple-system, Arial, sans-serif"
          font-size="11" fill="#6B7280">Сканируйте — память</text>
    <text x="105" y="226" text-anchor="middle" font-family="Inter, system-ui, -apple-system, Arial, sans-serif"
          font-size="11" fill="#6B7280">оживает онлайн</text>
  </g>
</svg>
